<svg xmlns="http://www.w3.org/2000/svg" width="32" height="32" viewBox="0 0 32 32" fill="none">
  <rect width="32" height="32" rx="8" fill="#18181b"/>
  <path d="m16 8-1.593 4.844a1.667 1.667 0 0 1-1.063 1.063L8.5 15.5l4.844 1.593a1.667 1.667 0 0 1 1.063 1.063L16 23l1.593-4.844a1.667 1.667 0 0 1 1.063-1.063L23.5 15.5l-4.844-1.593a1.667 1.667 0 0 1-1.063-1.063L16 8Z" stroke="#ffffff" stroke-width="1.5" stroke-linecap="round" stroke-linejoin="round"/>
  <path d="M10 8v3" stroke="#ffffff" stroke-width="1" stroke-linecap="round"/>
  <path d="M22 21v3" stroke="#ffffff" stroke-width="1" stroke-linecap="round"/>
  <path d="M8 10h3" stroke="#ffffff" stroke-width="1" stroke-linecap="round"/>
  <path d="M21 22h3" stroke="#ffffff" stroke-width="1" stroke-linecap="round"/>
</svg>
